<svg xmlns="http://www.w3.org/2000/svg" viewBox="0 0 900 500" fill="#306496">
  <path d="M153.9 347.7H76.8c13.2-65.1 26.5-130.1 39.7-195.3h77c-.1.5-.1 1.1-.2 1.7-1.8 8.7-3.5 17.3-5.3 26-.2.8-.6 1.8-1.2 2.5-18 22.8-34.3 46.5-49.7 70.7-7.2 11.4-14.2 22.8-21.2 34.3-.1.2-.3.5-.2.9l10.8-10.5c25.5-24.8 51.1-49.5 77.8-73.1 22.2-19.6 45.1-38.3 68.7-56.2 13.4-10.1 26.6-20.4 40.9-29 25-15.2 50.9-27.9 77.8-37.5 25.4-9.1 50.9-15.2 76.6-18.1 21.9-2.5 43.4-2.6 64.3-.1 42 5.1 78.5 19.7 108.8 45 11 9.2 20.5 19.6 29 31.1 1.9 2.5 3.5 5.2 5.1 8-2.9-2.7-5.7-5.5-8.8-8-12.6-10.5-27.6-17.6-43.7-23-19.6-6.6-40.4-10.3-61.9-12.1-17.3-1.4-34.9-1.5-52.7-.3-21.7 1.5-43.5 5-65.3 10.8-20.7 5.6-41 13.1-60.6 23.7-13.9 7.5-26.9 16.6-39.9 25.8-22.8 16.2-44.3 34.1-65.5 52.4-3.9 3.4-7.9 6.8-11.9 10.3 23.4 39.9 46.8 79.8 70.3 119.9H235c-1.6 0-2.5-.5-3.2-1.8-12.1-23.9-24.2-47.9-36.4-71.8-.2-.4-.5-.9-.9-1.4-5.3 3.9-10.5 7.8-15.7 11.7-4.2 3.1-8.3 6.3-12.5 9.3-1.3.9-1.9 1.9-2.2 3.4-3.2 15.9-6.5 31.9-9.7 47.8-.2 1.1-.3 1.9-.5 2.9zM233.8 351.5c3.8 3.2 7.1 6.4 10.8 9.2 13.7 10.3 29.8 16.8 46.9 21.6 17.2 4.8 35.1 7.5 53.5 8.8 18.3 1.3 36.9 1.2 55.8-.5 20.3-1.8 40.6-5.2 60.9-11 18.8-5.4 35.2-11.9 52.7-22.4 10.9-6.5 22.7-15.1 32.6-23.2 31.6-25.8 61.8-53.3 91.3-81.4 2.7-2.5 5.3-5.1 8-7.7.2-.2.3-.3.6-.7-20.2-30.5-40.5-61-61-91.9h88.5c1.6 0 2.4.5 3.1 1.7 6.7 12.3 13.5 24.6 20.2 36.8.3.5.6.9 1.1 1.6 9.4-10.3 18.7-20.4 27.9-30.5 2.5-2.8 4.9-5.6 7.5-8.4.6-.6 1.6-1.2 2.3-1.2 29.4-.1 89.2 0 89.2 0s-4.7 4.6-6.9 6.7c-29.6 28.7-59.2 57.4-88.9 86-1.2 1.1-1.4 1.9-.7 3 3.2 4.7 6.3 9.5 9.5 14.2l23.1 33.6 27.3 39.6c2.7 4 8.4 12.3 8.4 12.3h-93.3c-1.4 0-2.2-.4-2.8-1.5l-25.2-48c-.1-.2-.2-.3-.4-.6-.6.5-1.1 1-1.7 1.5-18.5 17.3-22.5 21.5-55.4 51.9-29.3 27.1-59.9 46.3-95.5 60.3-21.6 8.5-45.4 14.2-67.3 17.9-22.8 3.8-45.2 5-67.2 3.5-23.8-1.5-46.5-6-67.7-13.8-26.5-9.8-49.6-24-68.5-43.8-6.5-6.8-12.4-14.1-17.6-21.9-.5-.4-.7-.9-1.1-1.7zM585.2 152.4c-3.3 16.4-6.6 32.6-10 49.2h-71.4c-9.9 48.8-19.8 97.4-29.7 146.1h-77.2c9.9-48.6 19.8-97.2 29.7-146.1h-71.4c3.4-16.5 6.7-32.8 10-49.2h220zM823.5 328.7h-7.3v19.1h-6.4v-19.1h-7.4v-5.5h21.1v5.5zM826.4 323.2h9.4l4.3 16.4h.1l4.2-16.4h9.4v24.6h-6v-18.7h-.1l-5.1 18.7h-4.9l-5.2-18.7h-.1v18.7h-6v-24.6z"/>
</svg>